<svg width="160" height="82" viewBox="0 0 160 82" fill="none" xmlns="http://www.w3.org/2000/svg">
<path fill-rule="evenodd" clip-rule="evenodd" d="M9.60988 38.8638C10.8657 38.1952 12.2789 37.8552 13.7089 37.8805C16.1813 37.8805 18.2547 38.8245 19.9263 40.7097L23.6012 37.3973C22.424 36.0178 20.9293 34.9305 19.238 34.2225C17.4006 33.4668 15.4199 33.0903 13.4252 33.1184C11.0343 33.0819 8.67151 33.6353 6.55315 34.7226C4.56403 35.7481 2.9008 37.2877 1.74891 39.1729C-0.58297 43.1595 -0.58297 48.0537 1.74891 52.0403C2.9008 53.9255 4.56403 55.4651 6.55315 56.4906C8.65746 57.575 11.009 58.1285 13.3887 58.0948C15.389 58.1229 17.3725 57.7464 19.2184 56.9907C20.9237 56.2827 22.4268 55.1814 23.5984 53.7822L19.9263 50.4698C18.2519 52.3775 16.1813 53.3327 13.7061 53.3327C12.2761 53.358 10.8629 53.0181 9.60707 52.3494C8.42427 51.7116 7.45219 50.762 6.79757 49.6073C5.45463 47.1013 5.45463 44.1091 6.79757 41.6031C7.44938 40.4484 8.42427 39.4988 9.60707 38.861L9.60988 38.8638Z" fill="#A01E22"/>
<path fill-rule="evenodd" clip-rule="evenodd" d="M35.1314 33.5312L24.1097 57.6817H29.9732L32.1646 52.5066H43.647L45.8384 57.6817H51.8451L40.7869 33.5312H35.1342H35.1314ZM34.002 48.2642L37.924 39.0182L41.8461 48.2642H34.002Z" fill="#A01E22"/>
<path fill-rule="evenodd" clip-rule="evenodd" d="M74.1918 46.9352C75.074 45.6372 75.5179 44.0892 75.5179 42.2939C75.5179 40.4987 75.0824 38.9478 74.2115 37.6358C73.2984 36.2901 72.0032 35.2365 70.4833 34.5987C68.8706 33.8851 66.9686 33.5283 64.7772 33.5283H54.073V57.6787H59.7959V50.95H65.0609L69.8315 57.6787H75.9786L70.4299 49.9161C71.9582 49.3036 73.2647 48.2669 74.1918 46.9324V46.9352ZM68.3818 45.4012C67.4855 46.1373 66.1791 46.5054 64.4597 46.5054H59.7959V38.0881H64.4597C66.1791 38.0881 67.4855 38.4506 68.3818 39.1754C69.278 39.9003 69.7247 40.9398 69.7247 42.2968C69.7247 43.6313 69.278 44.6652 68.3818 45.4012Z" fill="#A01E22"/>
<path fill-rule="evenodd" clip-rule="evenodd" d="M104.273 33.5312L95.159 48.5396L85.9017 33.5312H81.1677V57.6845H86.5367V43.5021L93.7796 55.1306H96.3587L103.638 43.1931L103.675 57.6845H108.973V33.5312H104.273Z" fill="#A01E22"/>
<path fill-rule="evenodd" clip-rule="evenodd" d="M120.124 53.1977V47.6096H131.607V43.2605H120.124V38.018H133.127V33.5312H114.435V57.6845H133.584V53.1977H120.124Z" fill="#A01E22"/>
<path fill-rule="evenodd" clip-rule="evenodd" d="M145.28 53.1303L158.811 37.1555V33.5312H138.001V38.0854H151.284L137.717 54.0602V57.6845H159.339V53.1303H145.28Z" fill="#A01E22"/>
<path d="M87.9176 0.5H71.2601L69.1501 2.57341H90.0247L87.9176 0.5Z" fill="#A01E22"/>
<path d="M107.025 23.1333L107.036 12.9882H87.9288V12.373H109.138L107.031 10.2967H93.6264V8.40034H87.9316V7.78225H95.7392L93.6349 5.70884H87.9344V3.18311H71.232V5.70884H65.5287L63.4188 7.78225H71.2263V8.40034H65.5315V10.2967H52.119L50.009 12.3702H71.2235V12.9854H52.1162V23.1305H75.272V14.5447L79.5734 10.2771L83.8719 14.5447V23.1305H107.022L107.025 23.1333ZM58.0189 19.9165H55.4454V17.2081C55.4454 16.5142 56.0242 15.9495 56.735 15.9495H56.7378C57.4486 15.9495 58.0245 16.517 58.0217 17.2109V19.9165H58.0189ZM64.3459 19.9165H61.7724V17.2165C61.7724 16.5226 62.3512 15.9579 63.062 15.9579H63.0648C63.7756 15.9579 64.3515 16.5254 64.3487 17.2193V19.9193L64.3459 19.9165ZM70.6701 19.9165H68.0966V17.2222C68.0966 16.5282 68.6725 15.9635 69.3833 15.9635H69.3861C70.0969 15.9635 70.6729 16.531 70.6701 17.225V19.9165ZM101.125 19.9165V17.2193C101.125 16.5254 101.701 15.9607 102.412 15.9607H102.415C103.125 15.9607 103.701 16.5282 103.698 17.2222V19.9193H101.125V19.9165ZM94.8008 19.9165V17.2165C94.8008 16.5226 95.3768 15.9579 96.0876 15.9579H96.0904C96.8012 15.9579 97.3771 16.5254 97.3743 17.2193V19.9165H94.8008ZM88.4738 17.2165C88.4738 16.5226 89.0498 15.9579 89.7606 15.9579H89.7634C90.4742 15.9579 91.0501 16.5254 91.0473 17.2193V19.9193H88.4738V17.2165Z" fill="#A01E22"/>
<path d="M107.033 25.8784H52.1161V27.9546H107.033V25.8784Z" fill="#A01E22"/>
<path fill-rule="evenodd" clip-rule="evenodd" d="M78.6547 15.958H80.8601V16.8121H79.4048C79.2306 16.8121 79.0873 16.9498 79.0873 17.1211V21.5236C79.0873 21.695 79.2278 21.8327 79.4048 21.8327H80.8601V22.6474H78.6547C78.4496 22.6474 78.2838 22.4845 78.2838 22.285V16.3232C78.2838 16.1238 78.4496 15.9608 78.6547 15.9608V15.958Z" fill="#A01E22"/>
<path fill-rule="evenodd" clip-rule="evenodd" d="M57.8307 73.4356C57.0553 73.0732 56.2012 72.8934 55.3415 72.9103H51.4138V81.35H55.3415C56.2012 81.3669 57.0525 81.187 57.8307 80.8246C58.5246 80.4987 59.1062 79.9874 59.5108 79.3468C60.3087 77.9702 60.3087 76.2873 59.5108 74.9106C59.1062 74.2729 58.5246 73.7587 57.8307 73.4328V73.4356ZM57.3138 79.0434C56.7996 79.5126 56.1085 79.7486 55.246 79.7486H53.4198V74.5145H55.246C56.1113 74.5145 56.7996 74.7505 57.3138 75.2197C58.342 76.2957 58.342 77.9645 57.3138 79.0406V79.0434Z" fill="#A01E22"/>
<path d="M63.6716 74.8628H61.7443V81.3499H63.6716V74.8628Z" fill="#A01E22"/>
<path fill-rule="evenodd" clip-rule="evenodd" d="M62.7079 71.8625C62.3904 71.8485 62.0814 71.9581 61.8426 72.1631C61.4212 72.548 61.3959 73.1942 61.7892 73.6072C61.8061 73.6241 61.8257 73.6437 61.8426 73.6606C62.0786 73.8657 62.3904 73.9753 62.7079 73.9612C63.0254 73.9753 63.3372 73.8657 63.5732 73.655C63.7924 73.4555 63.916 73.1718 63.9076 72.8768C63.9132 72.5986 63.7896 72.3345 63.5732 72.1547C63.3316 71.9552 63.0254 71.8513 62.7079 71.8653V71.8625Z" fill="#A01E22"/>
<path fill-rule="evenodd" clip-rule="evenodd" d="M69.6474 74.7646C69.2203 74.7646 68.7961 74.8377 68.3999 74.9894C68.0375 75.127 67.7116 75.3434 67.4503 75.6215V74.8629H65.6101V81.3501H67.5374V78.1416C67.5374 77.5629 67.6807 77.1274 67.9701 76.8324C68.2763 76.5318 68.6977 76.3716 69.1304 76.3913C69.5041 76.366 69.8721 76.5065 70.1306 76.7706C70.3862 77.0993 70.5099 77.5095 70.4762 77.9225V81.3473H72.4035V77.6331C72.4035 76.6835 72.1506 75.9699 71.6449 75.4866C71.1083 74.9922 70.3891 74.7309 69.6502 74.7646H69.6474Z" fill="#A01E22"/>
<path fill-rule="evenodd" clip-rule="evenodd" d="M77.4521 74.4779H79.18V81.3499H81.1804V72.9102H77.4521V74.4779Z" fill="#A01E22"/>
<path fill-rule="evenodd" clip-rule="evenodd" d="M86.1222 72.767C85.5491 72.7586 84.9816 72.8766 84.4618 73.1098C83.9814 73.3233 83.574 73.6633 83.2818 74.0931C82.9896 74.5342 82.8379 75.0511 82.8491 75.5765C82.8379 76.0654 82.9756 76.5458 83.2453 76.956C83.5094 77.3549 83.8802 77.6752 84.3185 77.8803C84.7877 78.1023 85.3047 78.2118 85.8244 78.2062C86.7375 78.2062 87.4539 77.9534 87.9737 77.4477C87.94 78.2427 87.7096 78.8524 87.2825 79.2738C86.8162 79.7093 86.1868 79.9397 85.5406 79.906C84.9703 79.9284 84.4056 79.7823 83.9224 79.4845L83.1807 80.9202C83.5122 81.1197 83.8746 81.2629 84.2539 81.3472C84.6866 81.4484 85.1305 81.4989 85.5744 81.4989C86.3779 81.5158 87.173 81.3332 87.8838 80.9679C88.5496 80.6139 89.0918 80.0717 89.4346 79.4115C89.8195 78.6473 90.0077 77.8045 89.9853 76.9504C89.9853 75.599 89.6425 74.5651 88.9598 73.8459C88.2771 73.1266 87.3303 72.767 86.1194 72.767H86.1222ZM87.4118 76.3182C87.3893 76.3435 87.364 76.366 87.3387 76.3885C87.0409 76.6329 86.6588 76.7593 86.2711 76.7453C85.8834 76.7649 85.5041 76.6413 85.2035 76.4025C84.9338 76.1693 84.7877 75.8294 84.8018 75.4782C84.7849 75.1298 84.9338 74.7927 85.2035 74.5623C85.4957 74.3291 85.8694 74.2083 86.2458 74.2252C86.6448 74.2027 87.0409 74.3263 87.35 74.5763C87.8613 75.0399 87.8866 75.821 87.4118 76.321V76.3182Z" fill="#A01E22"/>
<path fill-rule="evenodd" clip-rule="evenodd" d="M96.8264 73.284C95.6493 72.5928 94.1771 72.5928 92.9999 73.284C92.4212 73.6492 91.966 74.1718 91.6851 74.7842C91.0501 76.2873 91.0501 77.973 91.6851 79.4761C91.966 80.0914 92.4212 80.6111 92.9999 80.9764C93.5731 81.3248 94.2361 81.5046 94.9132 81.4961C95.5875 81.5074 96.2533 81.3276 96.8264 80.9764C97.4052 80.6111 97.8603 80.0886 98.1413 79.4761C98.7762 77.973 98.7762 76.2873 98.1413 74.7842C97.8603 74.1718 97.4024 73.6492 96.8264 73.284ZM96.155 79.1811C95.8937 79.6025 95.4189 79.8554 94.9132 79.8441C94.4103 79.8526 93.9439 79.5997 93.6854 79.1811C93.3848 78.74 93.2359 78.0545 93.2359 77.1302C93.2359 76.2059 93.3876 75.5231 93.6854 75.0792C94.1181 74.4134 95.0227 74.2167 95.7026 74.6382C95.8853 74.7505 96.0398 74.9023 96.155 75.0792C96.4556 75.5203 96.6045 76.2059 96.6045 77.1302C96.6045 78.0545 96.4556 78.7372 96.155 79.1811Z" fill="#A01E22"/>
<path fill-rule="evenodd" clip-rule="evenodd" d="M106.351 77.9869V76.408H104.46V77.9869H102.139L105.918 72.9102H103.819L99.7427 78.2651V79.5799H104.398V81.3527H106.351V79.5799H107.758V77.9869H106.351Z" fill="#A01E22"/>
</svg>
