<svg width="103" height="52" viewBox="0 0 103 52" fill="none" xmlns="http://www.w3.org/2000/svg">
<path fill-rule="evenodd" clip-rule="evenodd" d="M6.74597 24.6285C7.55219 24.1992 8.45941 23.981 9.37746 23.9972C10.9646 23.9972 12.2957 24.6032 13.3689 25.8135L15.728 23.687C14.9723 22.8014 14.0128 22.1034 12.927 21.6489C11.7474 21.1637 10.4759 20.922 9.19529 20.9401C7.6604 20.9166 6.14355 21.2719 4.78362 21.9699C3.50665 22.6282 2.4389 23.6166 1.69942 24.8269C0.202408 27.3862 0.202408 30.5281 1.69942 33.0875C2.4389 34.2977 3.50665 35.2861 4.78362 35.9444C6.13454 36.6406 7.64417 36.9959 9.17184 36.9743C10.456 36.9923 11.7294 36.7506 12.9144 36.2655C14.0092 35.811 14.9741 35.1039 15.7262 34.2057L13.3689 32.0793C12.2939 33.3039 10.9646 33.9171 9.37565 33.9171C8.45761 33.9334 7.55038 33.7151 6.74416 33.2859C5.98483 32.8765 5.36078 32.2668 4.94053 31.5255C4.0784 29.9167 4.0784 27.9958 4.94053 26.387C5.35898 25.6457 5.98483 25.0361 6.74416 24.6267L6.74597 24.6285Z" fill="white"/>
<path fill-rule="evenodd" clip-rule="evenodd" d="M23.1301 21.2053L16.0545 36.7093H19.8187L21.2255 33.387H28.5969L30.0037 36.7093H33.8599L26.7608 21.2053H23.1319H23.1301ZM22.4051 30.6635L24.9229 24.7278L27.4408 30.6635H22.4051Z" fill="white"/>
<path fill-rule="evenodd" clip-rule="evenodd" d="M48.2059 29.8103C48.7723 28.977 49.0572 27.9832 49.0572 26.8307C49.0572 25.6782 48.7777 24.6826 48.2186 23.8403C47.6324 22.9763 46.8009 22.3 45.8251 21.8906C44.7899 21.4324 43.5688 21.2034 42.162 21.2034H35.2902V36.7073H38.9641V32.3877H42.3441L45.4067 36.7073H49.353L45.7909 31.7239C46.772 31.3307 47.6107 30.6652 48.2059 29.8085V29.8103ZM44.476 28.8255C43.9007 29.298 43.062 29.5343 41.9582 29.5343H38.9641V24.1307H41.9582C43.062 24.1307 43.9007 24.3633 44.476 24.8287C45.0514 25.294 45.3382 25.9613 45.3382 26.8325C45.3382 27.6892 45.0514 28.3529 44.476 28.8255Z" fill="white"/>
<path fill-rule="evenodd" clip-rule="evenodd" d="M67.5174 21.2053L61.6664 30.8403L55.7234 21.2053H52.6843V36.7111H56.1311V27.6064L60.7808 35.0716H62.4365L67.1097 27.408L67.1332 36.7111H70.5348V21.2053H67.5174Z" fill="white"/>
<path fill-rule="evenodd" clip-rule="evenodd" d="M77.6934 33.8307V30.2433H85.0648V27.4513H77.6934V24.0857H86.0406V21.2053H74.0411V36.7111H86.3346V33.8307H77.6934Z" fill="white"/>
<path fill-rule="evenodd" clip-rule="evenodd" d="M93.8431 33.7874L102.529 23.532V21.2053H89.1699V24.129H97.6975L88.9877 34.3844V36.7111H102.868V33.7874H93.8431Z" fill="white"/>
<path d="M57.0175 0H46.3238L44.9693 1.33108H58.3702L57.0175 0Z" fill="white"/>
<path d="M69.284 14.53L69.2912 8.01707H57.0248V7.62207H70.6403L69.2876 6.28919H60.6825V5.07175H57.0266V4.67495H62.0388L60.6879 3.34387H57.0284V1.72241H46.3058V3.34387H42.6445L41.2899 4.67495H46.3022V5.07175H42.6463V6.28919H34.0357L32.6812 7.62027H46.3004V8.01526H34.0339V14.5282H48.8994V9.01628L51.6608 6.27657L54.4203 9.01628V14.5282H69.2822L69.284 14.53ZM37.8234 12.4648H36.1712V10.7261C36.1712 10.2806 36.5428 9.91809 36.9991 9.91809H37.0009C37.4572 9.91809 37.827 10.2824 37.8252 10.7279V12.4648H37.8234ZM41.8851 12.4648H40.233V10.7315C40.233 10.286 40.6045 9.9235 41.0609 9.9235H41.0627C41.519 9.9235 41.8887 10.2878 41.8869 10.7333V12.4666L41.8851 12.4648ZM45.9451 12.4648H44.293V10.7351C44.293 10.2896 44.6627 9.92711 45.119 9.92711H45.1208C45.5771 9.92711 45.9469 10.2914 45.9451 10.7369V12.4648ZM65.4964 12.4648V10.7333C65.4964 10.2878 65.8661 9.9253 66.3225 9.9253H66.3243C66.7806 9.9253 67.1503 10.2896 67.1485 10.7351V12.4666H65.4964V12.4648ZM61.4364 12.4648V10.7315C61.4364 10.286 61.8062 9.9235 62.2625 9.9235H62.2643C62.7206 9.9235 63.0904 10.2878 63.0886 10.7333V12.4648H61.4364ZM57.3747 10.7315C57.3747 10.286 57.7444 9.9235 58.2007 9.9235H58.2025C58.6588 9.9235 59.0286 10.2878 59.0268 10.7333V12.4666H57.3747V10.7315Z" fill="white"/>
<path d="M69.2894 16.2922H34.0339V17.6251H69.2894V16.2922Z" fill="white"/>
<path fill-rule="evenodd" clip-rule="evenodd" d="M51.071 9.92358H52.4868V10.4719H51.5525C51.4407 10.4719 51.3487 10.5603 51.3487 10.6703V13.4966C51.3487 13.6066 51.4389 13.695 51.5525 13.695H52.4868V14.218H51.071C50.9393 14.218 50.8329 14.1134 50.8329 13.9854V10.1581C50.8329 10.03 50.9393 9.92539 51.071 9.92539V9.92358Z" fill="white"/>
<path fill-rule="evenodd" clip-rule="evenodd" d="M37.7025 46.8228C37.2047 46.5902 36.6564 46.4747 36.1045 46.4856H33.583V51.9037H36.1045C36.6564 51.9145 37.2029 51.799 37.7025 51.5664C38.148 51.3572 38.5213 51.0289 38.7811 50.6177C39.2933 49.7339 39.2933 48.6535 38.7811 47.7697C38.5213 47.3603 38.148 47.0303 37.7025 46.821V46.8228ZM37.3706 50.4229C37.0406 50.7241 36.5969 50.8756 36.0432 50.8756H34.8708V47.5154H36.0432C36.5987 47.5154 37.0406 47.6669 37.3706 47.9681C38.0308 48.6589 38.0308 49.7303 37.3706 50.4211V50.4229Z" fill="white"/>
<path d="M41.4523 47.7393H40.215V51.9038H41.4523V47.7393Z" fill="white"/>
<path fill-rule="evenodd" clip-rule="evenodd" d="M40.8336 45.8128C40.6298 45.8038 40.4314 45.8741 40.2781 46.0058C40.0075 46.2529 39.9913 46.6677 40.2438 46.9328C40.2546 46.9437 40.2672 46.9563 40.2781 46.9671C40.4296 47.0988 40.6298 47.1691 40.8336 47.1601C41.0374 47.1691 41.2376 47.0988 41.3891 46.9635C41.5298 46.8354 41.6091 46.6533 41.6037 46.4639C41.6073 46.2853 41.528 46.1158 41.3891 46.0004C41.234 45.8723 41.0374 45.8056 40.8336 45.8146V45.8128Z" fill="white"/>
<path fill-rule="evenodd" clip-rule="evenodd" d="M45.2886 47.6759C45.0144 47.6759 44.7421 47.7228 44.4878 47.8202C44.2551 47.9086 44.0459 48.0475 43.8782 48.226V47.7391H42.6968V51.9036H43.9341V49.8439C43.9341 49.4723 44.026 49.1928 44.2118 49.0034C44.4084 48.8104 44.679 48.7076 44.9567 48.7202C45.1966 48.704 45.4329 48.7942 45.5988 48.9637C45.7629 49.1747 45.8423 49.4381 45.8207 49.7032V51.9018H47.0579V49.5174C47.0579 48.9078 46.8956 48.4497 46.571 48.1395C46.2265 47.822 45.7647 47.6543 45.2904 47.6759H45.2886Z" fill="white"/>
<path fill-rule="evenodd" clip-rule="evenodd" d="M50.299 47.492H51.4082V51.9037H52.6924V46.4856H50.299V47.492Z" fill="white"/>
<path fill-rule="evenodd" clip-rule="evenodd" d="M55.865 46.3936C55.4971 46.3882 55.1327 46.4639 54.7991 46.6136C54.4906 46.7507 54.2291 46.9689 54.0415 47.2449C53.854 47.5281 53.7566 47.8599 53.7638 48.1972C53.7566 48.511 53.8449 48.8195 54.0181 49.0828C54.1876 49.3389 54.4257 49.5445 54.7071 49.6762C55.0083 49.8187 55.3401 49.889 55.6738 49.8854C56.26 49.8854 56.7199 49.7231 57.0536 49.3984C57.032 49.9089 56.8841 50.3002 56.6099 50.5708C56.3105 50.8503 55.9065 50.9982 55.4917 50.9766C55.1255 50.991 54.763 50.8972 54.4528 50.7061L53.9766 51.6277C54.1894 51.7558 54.4221 51.8478 54.6656 51.9019C54.9433 51.9668 55.2283 51.9993 55.5133 51.9993C56.0291 52.0101 56.5396 51.8928 56.9959 51.6584C57.4233 51.4311 57.7714 51.083 57.9915 50.6592C58.2386 50.1686 58.3594 49.6275 58.345 49.0792C58.345 48.2116 58.1249 47.5479 57.6867 47.0862C57.2484 46.6245 56.6406 46.3936 55.8632 46.3936H55.865ZM56.6929 48.6734C56.6784 48.6896 56.6622 48.704 56.646 48.7185C56.4548 48.8754 56.2095 48.9565 55.9606 48.9475C55.7117 48.9601 55.4682 48.8808 55.2752 48.7275C55.1021 48.5778 55.0083 48.3595 55.0173 48.1341C55.0065 47.9104 55.1021 47.694 55.2752 47.5461C55.4628 47.3964 55.7027 47.3188 55.9444 47.3297C56.2005 47.3152 56.4548 47.3946 56.6532 47.5551C56.9814 47.8527 56.9977 48.3541 56.6929 48.6752V48.6734Z" fill="white"/>
<path fill-rule="evenodd" clip-rule="evenodd" d="M62.7368 46.7256C61.9811 46.2819 61.036 46.2819 60.2803 46.7256C59.9088 46.9601 59.6166 47.2955 59.4362 47.6887C59.0286 48.6537 59.0286 49.7358 59.4362 50.7008C59.6166 51.0958 59.9088 51.4294 60.2803 51.6639C60.6482 51.8876 61.0739 52.003 61.5086 51.9976C61.9414 52.0048 62.3689 51.8894 62.7368 51.6639C63.1084 51.4294 63.4006 51.094 63.5809 50.7008C63.9886 49.7358 63.9886 48.6537 63.5809 47.6887C63.4006 47.2955 63.1066 46.9601 62.7368 46.7256ZM62.3058 50.5114C62.138 50.7819 61.8332 50.9443 61.5086 50.9371C61.1857 50.9425 60.8863 50.7801 60.7204 50.5114C60.5274 50.2282 60.4318 49.7881 60.4318 49.1948C60.4318 48.6014 60.5292 48.1631 60.7204 47.8781C60.9981 47.4507 61.5789 47.3244 62.0154 47.5949C62.1326 47.6671 62.2318 47.7645 62.3058 47.8781C62.4988 48.1613 62.5944 48.6014 62.5944 49.1948C62.5944 49.7881 62.4988 50.2264 62.3058 50.5114Z" fill="white"/>
<path fill-rule="evenodd" clip-rule="evenodd" d="M68.8511 49.7447V48.7311H67.6373V49.7447H66.1475L68.5734 46.4856H67.2261L64.609 49.9233V50.7674H67.5976V51.9055H68.8511V50.7674H69.7548V49.7447H68.8511Z" fill="white"/>
</svg>
