<svg width="24" height="25" viewBox="0 0 24 25" fill="none" xmlns="http://www.w3.org/2000/svg">
<path d="M22.7301 8.07554C22.718 7.1686 22.548 6.27068 22.2276 5.42194C21.9497 4.70603 21.5253 4.05586 20.9815 3.51297C20.4377 2.97007 19.7865 2.54639 19.0694 2.26899C18.2301 1.95449 17.3435 1.78443 16.4473 1.76606C15.2934 1.71457 14.9276 1.7002 11.9985 1.7002C9.06941 1.7002 8.69398 1.7002 7.54849 1.76606C6.65267 1.78456 5.76649 1.95462 4.92765 2.26899C4.21044 2.5462 3.55908 2.96981 3.01526 3.51273C2.47144 4.05565 2.04712 4.70592 1.76945 5.42194C1.45379 6.25913 1.28382 7.14404 1.26688 8.03842C1.2153 9.19158 1.19971 9.55681 1.19971 12.481C1.19971 15.4053 1.19971 15.7789 1.26688 16.9237C1.28487 17.8194 1.45399 18.7031 1.76945 19.5425C2.04758 20.2583 2.47222 20.9083 3.01622 21.451C3.56023 21.9937 4.21164 22.4172 4.92885 22.6943C5.7654 23.0214 6.65173 23.2037 7.54969 23.2331C8.70477 23.2846 9.07061 23.3002 11.9997 23.3002C14.9288 23.3002 15.3042 23.3002 16.4497 23.2331C17.3459 23.2155 18.2326 23.0459 19.0718 22.7314C19.7887 22.4537 20.4398 22.0299 20.9835 21.487C21.5273 20.9442 21.9518 20.2942 22.23 19.5785C22.5454 18.7402 22.7145 17.8565 22.7325 16.9596C22.7841 15.8076 22.7997 15.4424 22.7997 12.517C22.7973 9.59273 22.7973 9.22152 22.7301 8.07554ZM11.9913 18.011C8.92787 18.011 6.44617 15.5334 6.44617 12.475C6.44617 9.41671 8.92787 6.93914 11.9913 6.93914C13.462 6.93914 14.8724 7.52238 15.9123 8.56057C16.9522 9.59875 17.5364 11.0068 17.5364 12.475C17.5364 13.9433 16.9522 15.3513 15.9123 16.3895C14.8724 17.4277 13.462 18.011 11.9913 18.011ZM17.7571 8.02524C17.5873 8.0254 17.4191 7.99212 17.2621 7.9273C17.1052 7.86249 16.9626 7.76741 16.8425 7.64751C16.7224 7.52761 16.6272 7.38524 16.5622 7.22855C16.4973 7.07186 16.464 6.90393 16.4641 6.73437C16.4641 6.56493 16.4976 6.39714 16.5625 6.2406C16.6275 6.08406 16.7227 5.94182 16.8427 5.822C16.9627 5.70219 17.1052 5.60715 17.262 5.54231C17.4188 5.47747 17.5868 5.44409 17.7565 5.44409C17.9263 5.44409 18.0943 5.47747 18.2511 5.54231C18.4079 5.60715 18.5504 5.70219 18.6704 5.822C18.7904 5.94182 18.8856 6.08406 18.9506 6.2406C19.0155 6.39714 19.049 6.56493 19.049 6.73437C19.049 7.44806 18.4708 8.02524 17.7571 8.02524Z" fill="#A01E22"/>
<path d="M11.9937 15.4816C13.6522 15.4816 14.9967 14.1371 14.9967 12.4786C14.9967 10.8201 13.6522 9.47559 11.9937 9.47559C10.3352 9.47559 8.99072 10.8201 8.99072 12.4786C8.99072 14.1371 10.3352 15.4816 11.9937 15.4816Z" fill="#A01E22"/>
</svg>
